{"title":"Fullmetal Alchemist: The Sacred Star of Milos [EngDub] Download","magnet":"magnet:?xt=urn:btih:27c90d7a64febc02df2785605f700d88001ae72b&dn=Fullmetal+Alchemist%3A+The+Sacred+Star+of+Milos+%5BEngDub%5D+Download&tr=udp%3A%2F%2Ftracker.leechers-paradise.org%3A6969&tr=udp%3A%2F%2Fzer0day.ch%3A1337&tr=udp%3A%2F%2Fopen.demonii.com%3A1337&tr=udp%3A%2F%2Ftracker.coppersurfer.tk%3A6969&tr=udp%3A%2F%2Fexodus.desync.com%3A6969","uploader":"digimaza","categoryP":"video","categoryS":"hd___movies","size":"1215793511","seeders":"0","leechers":"0","description":"Fullmetal Alchemist: The Sacred Star of Milos [EngDub] 720p x264 Download \r\n <a href=\"\nhttps://s21.postimg.org/xll6uzvbr/fma-tssom.jpg\" rel=\"nofollow\" target=\"_NEW\">\nhttps://s21.postimg.org/xll6uzvbr/fma-tssom.jpg</a>\r\n\r\n..::File Specs::.. \r\nGeneral \r\n\r\nFormat : Matroska \r\nFormat version : Version 4 / Version 2 \r\nFile size : 1.13 GiB \r\nDuration : 1 h 50 min \r\nOverall bit rate : 1 463 kb/s \r\n\r\nVideo \r\nID : 1 \r\nFormat : AVC \r\nFormat/Info : Advanced Video Codec \r\nFormat profile : <a class=\"__cf_email__\" href=\"/cdn-cgi/l/email-protection\" data-cfemail=\"652d0c020d2529564b54\">[email&#xA0;protected]</a><script data-cfhash=\"f9e31\" type=\"text/javascript\">/* <![CDATA[ */!function(t,e,r,n,c,a,p){try{t=document.currentScript||function(){for(t=document.getElementsByTagName('script'),e=t.length;e--;)if(t[e].getAttribute('data-cfhash'))return t[e]}();if(t&&(c=t.previousSibling)){p=t.parentNode;if(a=c.getAttribute('data-cfemail')){for(e='',r='0x'+a.substr(0,2)|0,n=2;a.length-n;n+=2)e+='%'+('0'+('0x'+a.substr(n,2)^r).toString(16)).slice(-2);p.replaceChild(document.createTextNode(decodeURIComponent(e)),c)}p.removeChild(t)}}catch(u){}}()/* ]]> */</script> \r\nFormat settings, CABAC : Yes \r\nFormat settings, ReFrames : 2 frames \r\nCodec ID : V_MPEG4/ISO/AVC \r\nDuration : 1 h 50 min \r\nBit rate : 1 280 kb/s \r\nWidth : 1 920 pixels \r\nHeight : 1 080 pixels \r\nDisplay aspect ratio : 16:9 \r\nFrame rate mode : Constant \r\nFrame rate : 23.976 (24000/1001) FPS \r\nColor space : YUV \r\nChroma subsampling : 4:2:0 \r\nBit depth : 8 bits \r\nScan type : Progressive \r\nBits/(Pixel*Frame) : 0.026 \r\nStream size : 1 006 MiB (87%) \r\n\r\nAudio \r\nID : 2 \r\nFormat : AAC \r\nFormat/Info : Advanced Audio Codec \r\nFormat profile : LC \r\nCodec ID : A_AAC \r\nDuration : 1 h 50 min \r\nBit rate : 192 kb/s \r\nChannel(s) : 2 channels \r\nChannel positions : Front: L R \r\nSampling rate : 44.1 kHz \r\nFrame rate : 43.066 FPS (1024 spf) \r\nCompression mode : Lossy \r\nStream size : 152 MiB (13%) \r\n\r\n..::ScreenShots::.. \r\n <a href=\"\nhttps://s16.postimg.org/bfb80vbs5/vlcsnap-2017-06-02-13h32m27s480.png\" rel=\"nofollow\" target=\"_NEW\">\nhttps://s16.postimg.org/bfb80vbs5/vlcsnap-2017-06-02-13h32m27s480.png</a>  <a href=\"\nhttps://s16.postimg.org/a1jl5kcit/vlcsnap-2017-06-02-13h32m35s996.png\" rel=\"nofollow\" target=\"_NEW\">\nhttps://s16.postimg.org/a1jl5kcit/vlcsnap-2017-06-02-13h32m35s996.png</a> \r\n\r\n================================================================ \r\nSeed Seed Seed Seed Seed Seed Seed Seed Seed Seed Seed Seed Seed \r\nTo direct download this file, Visit. \r\nwww.DigiMaza.com \r\nSeed Seed Seed Seed Seed Seed Seed Seed Seed Seed Seed Seed Seed \r\n================================================================","last_updated":"2017-06-02T12:02:31.051Z","parsed":{"xt":"urn:btih:27c90d7a64febc02df2785605f700d88001ae72b","dn":"Fullmetal Alchemist: The Sacred Star of Milos [EngDub] Download","tr":["udp://exodus.desync.com:6969","udp://open.demonii.com:1337","udp://tracker.coppersurfer.tk:6969","udp://tracker.leechers-paradise.org:6969","udp://zer0day.ch:1337"],"infoHash":"27c90d7a64febc02df2785605f700d88001ae72b","infoHashBuffer":{"type":"Buffer","data":[39,201,13,122,100,254,188,2,223,39,133,96,95,112,13,136,0,26,231,43]},"name":"Fullmetal Alchemist: The Sacred Star of Milos [EngDub] Download","announce":["udp://exodus.desync.com:6969","udp://open.demonii.com:1337","udp://tracker.coppersurfer.tk:6969","udp://tracker.leechers-paradise.org:6969","udp://zer0day.ch:1337"],"urlList":[]}}